<svg width="363" height="377" viewBox="0 0 363 377" fill="none" xmlns="http://www.w3.org/2000/svg">
<path d="M171.287 205.612C177.122 199.659 186.603 199.687 192.404 205.674L245.616 260.586C251.217 266.366 251.296 275.58 246.277 281.89C237.584 292.818 229.949 304.675 223.525 317.311L199.313 364.936C190.996 381.294 167.945 380.941 160.112 364.337L139.958 321.612C133.35 307.605 125.274 294.488 115.927 282.462C111.001 276.123 111.159 266.96 116.767 261.238L171.287 205.612ZM90.7114 122.314C96.9614 116.87 106.36 116.88 112.137 122.841L159.183 171.39C164.921 177.312 164.894 186.838 159.123 192.727L104.505 248.453C98.8569 254.215 89.7796 254.35 83.5453 249.254C71.2561 239.207 57.7929 230.578 43.3813 223.597L12.5151 208.644C-4.15318 200.57 -4.17688 176.377 12.4752 168.268L46.0178 151.931C62.2209 144.04 77.2273 134.059 90.7114 122.314ZM252.125 123.135C257.938 117.204 267.342 117.253 273.561 122.74C287.397 134.947 302.867 145.288 319.619 153.403L350.484 168.355C367.153 176.43 367.177 200.623 350.525 208.733L316.983 225.068C303.432 231.668 290.717 239.73 279.03 249.063C272.767 254.064 263.74 253.848 258.15 248.079L204.64 192.859C198.902 186.937 198.929 177.411 204.7 171.523L252.125 123.135ZM163.687 12.0643C172.003 -4.29339 195.054 -3.94191 202.887 12.6621L223.043 55.3866C228.522 67.0021 235.011 78.0055 242.397 88.2827C246.949 94.6158 246.623 103.452 241.179 109.007L192.535 158.636C186.701 164.589 177.221 164.562 171.419 158.576L123.183 108.798C117.767 103.209 117.494 94.3661 122.087 88.0596C128.587 79.136 134.409 69.6538 139.476 59.6871L163.687 12.0643Z" fill="black"/>
<path d="M171.287 205.612C177.122 199.659 186.603 199.687 192.404 205.674L245.616 260.586C251.217 266.366 251.296 275.58 246.277 281.89C237.584 292.818 229.949 304.675 223.525 317.311L199.313 364.936C190.996 381.294 167.945 380.941 160.112 364.337L139.958 321.612C133.35 307.605 125.274 294.488 115.927 282.462C111.001 276.123 111.159 266.96 116.767 261.238L171.287 205.612ZM90.7114 122.314C96.9614 116.87 106.36 116.88 112.137 122.841L159.183 171.39C164.921 177.312 164.894 186.838 159.123 192.727L104.505 248.453C98.8569 254.215 89.7796 254.35 83.5453 249.254C71.2561 239.207 57.7929 230.578 43.3813 223.597L12.5151 208.644C-4.15318 200.57 -4.17688 176.377 12.4752 168.268L46.0178 151.931C62.2209 144.04 77.2273 134.059 90.7114 122.314ZM252.125 123.135C257.938 117.204 267.342 117.253 273.561 122.74C287.397 134.947 302.867 145.288 319.619 153.403L350.484 168.355C367.153 176.43 367.177 200.623 350.525 208.733L316.983 225.068C303.432 231.668 290.717 239.73 279.03 249.063C272.767 254.064 263.74 253.848 258.15 248.079L204.64 192.859C198.902 186.937 198.929 177.411 204.7 171.523L252.125 123.135ZM163.687 12.0643C172.003 -4.29339 195.054 -3.94191 202.887 12.6621L223.043 55.3866C228.522 67.0021 235.011 78.0055 242.397 88.2827C246.949 94.6158 246.623 103.452 241.179 109.007L192.535 158.636C186.701 164.589 177.221 164.562 171.419 158.576L123.183 108.798C117.767 103.209 117.494 94.3661 122.087 88.0596C128.587 79.136 134.409 69.6538 139.476 59.6871L163.687 12.0643Z" fill="url(#paint0_linear_139_26)"/>
<defs>
<linearGradient id="paint0_linear_139_26" x1="1.84706" y1="17.5745" x2="416.602" y2="98.4922" gradientUnits="userSpaceOnUse">
<stop stop-color="#BAFF55"/>
<stop offset="0.490385" stop-color="#F6FF79"/>
<stop offset="1" stop-color="#BAFF54"/>
</linearGradient>
</defs>
</svg>
